# xmcd
#
# Track frame offsets: 
#        150
#        21605
#        42322
#        59932
#        78617
#        100577
#        122827
#        141520
#        158920
#        179480
#        203562
#        225965
#        248490
#        265862
#        284000
#        298100
#
# Disc length: 4165 seconds
#
# Revision: 1
# Processed by: cddbd v1.4PL0 Copyright (c) Steve Scherf et al.
# Submitted via: ExactAudioCopy v0.90b4
#
DISCID=f4104310
DTITLE=林志美 - 林志美 白金珍藏版
DYEAR=1990
DGENRE=Pop
TTITLE0=永远动听
TTITLE1=十二小时
TTITLE2=因我爱你
TTITLE3=摄石人
TTITLE4=冷战
TTITLE5=偶遇
TTITLE6=你的眼神
TTITLE7=什么是缘分
TTITLE8=永远冬天
TTITLE9=洒脱
TTITLE10=伴你一亿里
TTITLE11=因你别离
TTITLE12=雨夜钢琴
TTITLE13=感情的段落
TTITLE14=风筝
TTITLE15=初恋
EXTD=
EXTT0=
EXTT1=
EXTT2=
EXTT3=
EXTT4=
EXTT5=
EXTT6=
EXTT7=
EXTT8=
EXTT9=
EXTT10=
EXTT11=
EXTT12=
EXTT13=
EXTT14=
EXTT15=
PLAYORDER=
